<svg width="64" height="64" viewBox="0 0 64 64" fill="none" xmlns="http://www.w3.org/2000/svg">
<rect width="64" height="64" rx="4" fill="#F2A33B"/>
<path fill-rule="evenodd" clip-rule="evenodd" d="M34.8452 21.6667C34.8452 20.8843 35.4794 20.25 36.2618 20.25H42.3333C43.1157 20.25 43.75 20.8843 43.75 21.6667V27.7382C43.75 28.5206 43.1157 29.1548 42.3333 29.1548C41.5509 29.1548 40.9167 28.5206 40.9167 27.7382V25.0868L36.2517 29.7518C35.6984 30.3051 34.8014 30.3051 34.2482 29.7518C33.6949 29.1986 33.6949 28.3016 34.2482 27.7484L38.9132 23.0833H36.2618C35.4794 23.0833 34.8452 22.4491 34.8452 21.6667Z" fill="#313B50"/>
<path fill-rule="evenodd" clip-rule="evenodd" d="M21.0385 23.3885C24.4643 22.2459 27.9261 24.3918 28.8877 27.8661C29.5429 30.2335 28.9224 32.716 27.4092 34.4158C27.7191 34.8172 28.0577 35.2031 28.4254 35.571C28.7912 35.9371 29.1748 36.2745 29.5737 36.5834C31.2729 35.0582 33.7628 34.4307 36.1372 35.0888C39.6108 36.0517 41.7527 39.5162 40.6118 42.9418C39.8632 45.1894 38.4674 46.5551 36.6059 47.0046C34.8761 47.4222 33.0111 46.9782 31.3662 46.2945C28.0532 44.9173 24.7819 42.2045 23.2879 40.7094C21.7586 39.1789 19.0575 35.9029 17.6928 32.5961C17.0152 30.9541 16.5788 29.096 16.9974 27.3742C17.4479 25.5218 18.8065 24.133 21.0385 23.3885ZM26.157 28.6218C25.5724 26.5095 23.6298 25.511 21.935 26.0763C20.4452 26.5732 19.9285 27.3118 19.7506 28.0436C19.5409 28.906 19.7232 30.0889 20.3119 31.5152C21.4799 34.3453 23.9022 37.3158 25.2921 38.7066C26.6483 40.0639 29.6156 42.4983 32.4538 43.6782C33.8845 44.2729 35.0732 44.4599 35.9408 44.2504C36.6766 44.0727 37.4219 43.553 37.9236 42.0465C38.4894 40.3477 37.4893 38.4038 35.3803 37.8192C33.8108 37.3842 32.1972 37.8882 31.2368 38.9167C30.6167 39.5809 29.4346 39.9595 28.4288 39.2574C27.7212 38.7635 27.0491 38.2022 26.4212 37.5737C25.7922 36.9443 25.2306 36.2706 24.7366 35.5614C24.039 34.5599 24.4112 33.3824 25.0706 32.7608C26.0915 31.7984 26.5905 30.1882 26.157 28.6218Z" fill="#313B50"/>
</svg>
