<svg width="24" height="24" viewBox="0 0 24 24" fill="none" xmlns="http://www.w3.org/2000/svg">
<path fill-rule="evenodd" clip-rule="evenodd" d="M7 4C5.34315 4 4 5.34315 4 7V17C4 18.6569 5.34315 20 7 20H17C18.6569 20 20 18.6569 20 17V13C20 12.4477 20.4477 12 21 12C21.5523 12 22 12.4477 22 13V17C22 19.7614 19.7614 22 17 22H7C4.23858 22 2 19.7614 2 17V7C2 4.23858 4.23858 2 7 2H11C11.5523 2 12 2.44772 12 3C12 3.55228 11.5523 4 11 4H7Z" fill="#F2A33B"/>
<path fill-rule="evenodd" clip-rule="evenodd" d="M21.7071 2.29289C22.0976 2.68342 22.0976 3.31658 21.7071 3.70711L12.7071 12.7071C12.3166 13.0976 11.6834 13.0976 11.2929 12.7071C10.9024 12.3166 10.9024 11.6834 11.2929 11.2929L20.2929 2.29289C20.6834 1.90237 21.3166 1.90237 21.7071 2.29289Z" fill="#F2A33B"/>
<path fill-rule="evenodd" clip-rule="evenodd" d="M18 13C18 13.5523 17.5523 14 17 14H11C10.4477 14 10 13.5523 10 13V7C10 6.44772 10.4477 6 11 6C11.5523 6 12 6.44772 12 7V12H17C17.5523 12 18 12.4477 18 13Z" fill="#F2A33B"/>
</svg>
