<svg width="64" height="64" viewBox="0 0 64 64" fill="none" xmlns="http://www.w3.org/2000/svg">
<rect width="64" height="64" rx="4" fill="#F2A33B"/>
<path d="M32.1756 14.0197C23.1963 14.4472 16.1103 21.9253 16.1375 30.9148C16.1458 33.6528 16.8068 36.2371 17.9729 38.5205L16.1826 47.2107C16.0857 47.6808 16.5097 48.0924 16.9767 47.9818L25.4921 45.9643C27.6798 47.0541 30.1371 47.6836 32.7378 47.7232C41.9155 47.8634 49.5682 40.576 49.8542 31.4017C50.1609 21.5674 42.0443 13.5497 32.1756 14.0197ZM42.3363 40.1989C39.8425 42.6927 36.5268 44.0661 33.0001 44.0661C30.935 44.0661 28.958 43.6028 27.1236 42.689L25.9378 42.0983L20.7169 43.3352L21.8159 38.0005L21.2317 36.8564C20.2794 34.9915 19.7966 32.9749 19.7966 30.8626C19.7966 27.3358 21.1699 24.0201 23.6637 21.5263C26.1353 19.0547 29.5051 17.659 33.0003 17.659C36.527 17.6591 39.8426 19.0325 42.3364 21.5262C44.8302 24.02 46.2036 27.3356 46.2037 30.8623C46.2036 34.3577 44.8078 37.7275 42.3363 40.1989Z" fill="#313B50"/>
<path d="M41.1839 34.5195L37.9176 33.5816C37.4882 33.4583 37.0258 33.5801 36.7129 33.899L35.9141 34.7127C35.5773 35.0559 35.0663 35.1661 34.6205 34.9858C33.0754 34.3605 29.8251 31.4706 28.9951 30.0251C28.7556 29.6081 28.7952 29.0868 29.0892 28.7064L29.7866 27.8042C30.0598 27.4507 30.1174 26.976 29.9368 26.5674L28.5626 23.4594C28.2334 22.7149 27.2821 22.4982 26.6606 23.0238C25.749 23.7949 24.6674 24.9665 24.5359 26.2645C24.3041 28.553 25.2855 31.4378 28.9969 34.9018C33.2846 38.9036 36.7181 39.4323 38.9537 38.8908C40.2217 38.5837 41.235 37.3524 41.8746 36.3443C42.3106 35.6569 41.9663 34.7441 41.1839 34.5195Z" fill="#313B50"/>
</svg>
