<svg width="51" height="51" viewBox="0 0 51 51" fill="none" xmlns="http://www.w3.org/2000/svg">
<path fill-rule="evenodd" clip-rule="evenodd" d="M26.0665 8.5C16.6777 8.5 9.06653 16.1112 9.06653 25.5C9.06653 34.8888 16.6777 42.5 26.0665 42.5C35.4554 42.5 43.0665 34.8888 43.0665 25.5C43.0665 16.1112 35.4554 8.5 26.0665 8.5ZM4.81653 25.5C4.81653 13.7639 14.3305 4.25 26.0665 4.25C37.8026 4.25 47.3165 13.7639 47.3165 25.5C47.3165 37.2361 37.8026 46.75 26.0665 46.75C14.3305 46.75 4.81653 37.2361 4.81653 25.5Z" fill="#F2A33B"/>
<path fill-rule="evenodd" clip-rule="evenodd" d="M26.0665 23.375C27.2401 23.375 28.1915 24.3264 28.1915 25.5V34C28.1915 35.1736 27.2401 36.125 26.0665 36.125C24.8929 36.125 23.9415 35.1736 23.9415 34V25.5C23.9415 24.3264 24.8929 23.375 26.0665 23.375Z" fill="#F2A33B"/>
<path fill-rule="evenodd" clip-rule="evenodd" d="M23.9415 17C23.9415 15.8264 24.8929 14.875 26.0665 14.875H26.0878C27.2614 14.875 28.2128 15.8264 28.2128 17C28.2128 18.1736 27.2614 19.125 26.0878 19.125H26.0665C24.8929 19.125 23.9415 18.1736 23.9415 17Z" fill="#F2A33B"/>
</svg>
