<svg width="91" height="34" viewBox="0 0 91 34" fill="none" xmlns="http://www.w3.org/2000/svg">
<g clip-path="url(#clip0_1_260)">
<path d="M16.5979 25.1473L16.64 2.63435L9.56355 2.20477L4.30097 4.29161L4.29676 6.48373L0.00841677 8.1473L0 17.2295L4.27572 17.4907L4.26309 24.9325L0.174648 26.5519L0.164127 33.0735L15.409 34L20.6695 31.9132L20.6821 25.3916L16.5979 25.1473Z" fill="#E3A133"/>
<path d="M0.174706 26.5519L5.43519 24.4692L9.52153 24.7177L4.25894 26.8024L0.174706 26.5519Z" fill="url(#paint0_linear_1_260)"/>
<path d="M11.3353 27.23L16.5979 25.1473L20.6821 25.3916L15.4195 27.4784L11.3353 27.23Z" fill="url(#paint1_linear_1_260)"/>
<path d="M15.4195 27.4784L20.6821 25.3916L20.6695 31.9132L15.409 34.0001L15.4195 27.4784Z" fill="#E3A133"/>
<path d="M11.3774 4.71696L16.64 2.63434L16.5979 25.1473L11.3353 27.2299L11.3774 4.71696Z" fill="#E3A133"/>
<path d="M4.30109 4.29161L9.56368 2.20477L16.6401 2.63435L11.3775 4.71698L4.30109 4.29161Z" fill="url(#paint2_linear_1_260)"/>
<path d="M11.3774 4.71699L11.3353 27.2299L15.4196 27.4784L15.409 34L0.164177 33.0735L0.174698 26.5519L4.25893 26.8025L4.30102 4.29163L11.3774 4.71699Z" fill="url(#paint3_linear_1_260)"/>
<path d="M2.28727 13.5739L6.80076 11.8219L6.79866 13.9024L2.28516 15.6544L2.28727 13.5739Z" fill="#E3A133"/>
<path d="M2.28927 9.94568L6.80277 8.19366V10.2615L2.28717 12.0136L2.28927 9.94568Z" fill="#E3A133"/>
<path d="M2.28516 15.6544L6.79866 13.9024L11.5836 14.1972L7.0701 15.9471L2.28516 15.6544Z" fill="url(#paint4_linear_1_260)"/>
<path d="M7.07006 15.9471L11.5836 14.1972L11.5814 15.9113L7.06796 17.6633L7.07006 15.9471Z" fill="#E3A133"/>
<path d="M2.28717 12.0135L6.80277 10.2615L11.5856 10.5542L7.07211 12.3041L2.28717 12.0135Z" fill="url(#paint5_linear_1_260)"/>
<path d="M7.07229 12.3041L11.5858 10.5542V12.1146L7.07018 13.8687L7.07229 12.3041Z" fill="#E3A133"/>
<path d="M7.0764 8.58107L7.07429 10.2383L2.28936 9.94562L2.28726 12.0135L7.07219 12.3041L7.07009 13.8687L2.28726 13.5739L2.28515 15.6544L7.07009 15.9471L7.06798 17.6633L0 17.2295L0.00841677 8.14728L7.0764 8.58107Z" fill="#EDDC36"/>
<path d="M7.07639 8.58108L11.5899 6.83118V8.48843L7.07429 10.2383L7.07639 8.58108Z" fill="#E3A133"/>
<path d="M0.00959778 8.14731L4.52309 6.3974L11.5911 6.83119L7.07758 8.5811L0.00959778 8.14731Z" fill="url(#paint6_linear_1_260)"/>
<path d="M26.8263 21.9002C26.6516 20.9252 26.1003 20.6367 25.6879 20.6367C24.8462 20.6367 24.6905 21.2684 24.6106 21.5843H23.6069C23.6331 21.0573 23.8667 20.5621 24.2566 20.2069C24.6466 19.8518 25.1612 19.6656 25.6879 19.6891C26.9315 19.6891 27.9163 20.6346 27.9163 22.494C27.9163 24.3534 26.9841 25.2863 25.7006 25.2863C24.4906 25.2863 23.8068 24.4797 23.5964 23.3216H24.619C24.7389 23.9744 25.1366 24.3492 25.69 24.3492C26.4539 24.3492 26.7989 23.6311 26.8726 22.8014H25.4607V21.9002H26.8263ZM32.718 19.8428V25.1599H31.7122V20.7672H30.3508V23.0373C30.3508 24.4145 30.0457 25.3073 29.0883 25.3073C28.8813 25.3122 28.6748 25.2853 28.476 25.2273V24.385C28.573 24.4168 28.6748 24.4317 28.7769 24.4292C29.2293 24.4292 29.3408 24.0775 29.3408 22.9278V19.8512L32.718 19.8428ZM37.3809 19.8428V20.7588H34.8138V21.8538H37.16V22.772H34.8138V24.246H37.4798V25.162H33.808V19.8512L37.3809 19.8428ZM39.422 22.0012L41.2632 19.8428H42.5678L40.5982 22.0181L42.6814 25.1599H41.3831L39.8933 22.8225L39.4157 23.3742V25.1768H38.412V19.8512H39.4157L39.422 22.0012ZM45.4358 25.1599H44.43V20.7672H42.9675V19.8512H46.8834V20.7672H45.4295L45.4358 25.1599ZM48.6215 25.1599H47.6157V19.8512H49.823C50.7552 19.8512 51.3149 20.5019 51.3149 21.5485C51.3149 22.0265 51.075 23.25 49.7788 23.25H48.6068L48.6215 25.1599ZM48.6215 22.3255H49.5579C50.2228 22.3255 50.3091 21.8265 50.3091 21.4959C50.3091 20.9778 50.0503 20.7588 49.4253 20.7588H48.6068L48.6215 22.3255ZM53.2507 23.549L55.1719 19.8428H56.3018V25.1599H55.2981V21.3695H55.2855L53.316 25.1599H52.2386V19.8512H53.236L53.2507 23.549ZM58.4186 19.8428V21.4011C58.4186 21.9128 58.7595 22.1128 59.1635 22.1128C59.4976 22.1114 59.8311 22.0839 60.1609 22.0307V19.8512H61.1667V25.1683H60.1609V22.9531C59.7438 23.0221 59.3211 23.0517 58.8984 23.0415C58.1198 23.0415 57.4255 22.5993 57.4255 21.3927V19.8554L58.4186 19.8428ZM65.8296 19.8428V20.7588H63.2604V21.8538H65.6086V22.772H63.2604V24.246H65.9285V25.162H62.2567V19.8512L65.8296 19.8428ZM69.9917 21.5864C69.9138 21.2621 69.7539 20.6388 68.9228 20.6388C68.4367 20.6388 67.7044 21.0199 67.7044 22.534C67.7044 23.4858 68.0706 24.3724 68.9228 24.3724C69.4804 24.3724 69.8717 23.9975 69.9917 23.3447H70.9954C70.7976 24.5029 70.1116 25.3094 68.9017 25.3094C67.6182 25.3094 66.7007 24.3492 66.7007 22.5172C66.7007 20.6851 67.6708 19.7123 68.9143 19.7123C69.4411 19.6888 69.9557 19.875 70.3456 20.2301C70.7356 20.5852 70.9692 21.0804 70.9954 21.6075L69.9917 21.5864ZM72.8913 22.0076L74.7345 19.8491H76.0391L74.0675 22.0265L76.1507 25.1683H74.8461L73.3563 22.8309L72.8828 23.3742V25.1768H71.8812V19.8512H72.8828L72.8913 22.0076ZM77.8214 23.5553L79.7488 19.8512H80.8788V25.1683H79.873V21.3779H79.8603L77.8929 25.1683H76.803V19.8512H77.8067L77.8214 23.5553ZM82.9809 23.5553H82.9956L84.9104 19.8491H86.0425V25.1662H85.0367V21.3758H85.0093L83.0419 25.1662H81.9624V19.8512H82.9661L82.9809 23.5553ZM83.5364 20.443H83.8688L84.4706 18.9815H83.5995L83.5364 20.443ZM34.0121 2.41955H41.8145V5.32342H37.3704V8.3347H41.3494V11.2407H37.3704V14.85H41.8145V17.756H34.0121V2.41955ZM82.5874 0H80.904L80.7736 2.82386H81.4322L82.5874 0ZM23.6069 17.756H27.144V5.33185H29.4586V17.756H32.9916V2.41955H23.6069V17.756ZM86.0298 5.8962V2.41955H82.6631L80.2433 10.1562V2.41955H76.8219V17.756H80.2517L82.6232 10.5963V17.756H86.0298V16.4546V5.8962V5.8962ZM52.2597 7.09649C52.2597 10.8869 50.0545 11.7734 47.9713 11.7734H46.3784V17.756H42.8455V2.41955H47.9755C50.0124 2.41955 52.2597 3.18816 52.2597 7.09649ZM48.7267 7.05227C48.7267 5.53821 47.9713 5.17391 46.9508 5.17391H46.3784V9.01908H47.0097C47.8893 9.01908 48.7267 8.57054 48.7267 7.05227V7.05227ZM72.2579 2.41955H75.7908V17.756H72.2579V14.5741C71.7529 17.1853 69.8591 17.756 68.1063 17.756H62.9784V2.41955H66.5113V8.3347H68.1063C69.8844 8.3347 71.7508 9.04435 72.2579 11.6071V2.41955ZM68.8617 13.119C68.8617 11.5818 68.0642 11.0912 67.1784 11.0912H66.5029V14.9995H67.1237C68.1463 14.9995 68.8617 14.6373 68.8617 13.119ZM62.3156 13.2264C62.3156 16.0903 60.8427 17.756 57.8442 17.756H52.9225V2.41955H58.5596C60.2745 2.41955 62.1746 3.50824 62.1746 6.2626C62.1746 8.35575 60.95 9.33916 60.1714 9.50972C61.5412 10.1078 62.3156 11.0912 62.3156 13.2264V13.2264ZM56.3334 8.3347H57.375C58.3744 8.3347 58.7637 7.82299 58.7637 6.60585C58.7637 5.70668 58.3744 5.17391 57.375 5.17391H56.3334V8.3347ZM58.8458 13.0769C58.8458 11.7966 58.4565 11.0912 57.2108 11.0912H56.3334V14.9995H57.1288C58.4565 14.9995 58.8458 14.4646 58.8458 13.0769Z" fill="#313B50"/>
<path d="M25.3681 31.7973C25.166 31.7985 24.9655 31.7621 24.7768 31.6899C24.5936 31.6186 24.4279 31.5087 24.2907 31.3678C24.1444 31.2175 24.0311 31.0381 23.9583 30.8413C23.8744 30.607 23.8337 30.3594 23.8383 30.1106C23.8341 29.8613 23.877 29.6134 23.9646 29.3799C24.0415 29.1824 24.1566 29.0021 24.3034 28.8492C24.4424 28.7026 24.6109 28.587 24.7978 28.5102C24.9867 28.4325 25.1891 28.3931 25.3933 28.3944C25.591 28.3907 25.7866 28.4347 25.9636 28.5228C26.1195 28.5993 26.2617 28.701 26.3844 28.824L25.9909 29.2999C25.9113 29.2252 25.8222 29.1615 25.7258 29.1104C25.6285 29.0594 25.5199 29.0341 25.4102 29.0366C25.3006 29.0355 25.1923 29.0607 25.0945 29.1104C24.9941 29.1601 24.9063 29.2322 24.8378 29.3209C24.7597 29.4206 24.7012 29.5342 24.6653 29.6557C24.6212 29.7997 24.5999 29.9496 24.6022 30.1001C24.5829 30.3794 24.657 30.6571 24.8126 30.8897C24.8806 30.9795 24.9694 31.0515 25.0712 31.0995C25.1731 31.1475 25.285 31.1702 25.3975 31.1656C25.5238 31.1678 25.6485 31.1374 25.7595 31.0772C25.8641 31.0192 25.9587 30.9445 26.0393 30.856L26.4328 31.3214C26.303 31.4764 26.1397 31.5997 25.9553 31.6822C25.7708 31.7646 25.57 31.804 25.3681 31.7973V31.7973Z" fill="#F2A33B"/>
<path d="M28.4065 31.7973C28.2356 31.7986 28.0659 31.7687 27.9057 31.7089C27.7547 31.6522 27.6171 31.5647 27.5017 31.452C27.3838 31.3321 27.2927 31.1886 27.2345 31.0308C27.1675 30.8533 27.1347 30.6646 27.1377 30.4749C27.1347 30.2873 27.1698 30.101 27.2408 29.9274C27.2998 29.771 27.3892 29.6278 27.5038 29.5062C27.6108 29.3955 27.7389 29.3074 27.8805 29.2472C28.0238 29.186 28.1781 29.1544 28.3339 29.1544C28.4898 29.1544 28.644 29.186 28.7874 29.2472C28.9171 29.3041 29.0317 29.3906 29.122 29.4999C29.2128 29.6124 29.2801 29.742 29.3197 29.881C29.3649 30.0363 29.3869 30.1974 29.385 30.3591C29.3883 30.4229 29.3883 30.4869 29.385 30.5507C29.385 30.6118 29.3703 30.656 29.3639 30.6876H27.8636C27.8838 30.8452 27.9646 30.9887 28.0888 31.0877C28.2113 31.1756 28.3589 31.2214 28.5096 31.2182C28.7021 31.2136 28.8894 31.1552 29.0504 31.0498L29.2966 31.5004C29.1674 31.5909 29.0256 31.6618 28.8758 31.711C28.725 31.7648 28.5666 31.794 28.4065 31.7973ZM27.851 30.2117H28.7537C28.7595 30.0901 28.7264 29.9698 28.659 29.8684C28.6199 29.8216 28.5699 29.785 28.5135 29.7619C28.457 29.7387 28.3957 29.7298 28.335 29.7358C28.2212 29.735 28.111 29.7762 28.0257 29.8516C27.9228 29.947 27.8578 30.0764 27.8426 30.2159L27.851 30.2117Z" fill="#F2A33B"/>
<path d="M30.3004 32.6712V29.2346H30.9064L30.9569 29.4831H30.978C31.0775 29.3974 31.1887 29.3265 31.3083 29.2725C31.4269 29.2145 31.5572 29.1843 31.6892 29.184C31.8313 29.1822 31.9719 29.214 32.0995 29.2767C32.2189 29.3341 32.3233 29.4184 32.4046 29.5231C32.4939 29.6437 32.5596 29.7802 32.5982 29.9253C32.6463 30.0951 32.6697 30.271 32.6676 30.4475C32.6709 30.6428 32.641 30.8371 32.5793 31.0224C32.5265 31.1762 32.4459 31.3189 32.3415 31.4435C32.2483 31.5547 32.1329 31.645 32.0027 31.7089C31.8809 31.7686 31.747 31.7996 31.6113 31.7994C31.5032 31.8 31.3962 31.777 31.2978 31.732C31.1936 31.6838 31.0983 31.6183 31.0158 31.5383L31.0411 31.9363V32.6691L30.3004 32.6712ZM31.443 31.1972C31.5072 31.1954 31.5702 31.1789 31.6271 31.149C31.6841 31.119 31.7333 31.0765 31.7712 31.0245C31.8751 30.8555 31.9223 30.6578 31.9059 30.4601C31.9059 30.0095 31.7628 29.7821 31.4725 29.7821C31.3904 29.7889 31.3107 29.8127 31.2383 29.8518C31.1659 29.891 31.1023 29.9446 31.0516 30.0095V31.0371C31.1133 31.0919 31.1847 31.1348 31.262 31.1635C31.319 31.1828 31.3786 31.1934 31.4388 31.1951L31.443 31.1972Z" fill="#F2A33B"/>
<path d="M33.5934 31.7426V29.2346H34.6602C34.7921 29.2334 34.9239 29.2447 35.0537 29.2683C35.1654 29.2861 35.2731 29.3239 35.3714 29.3799C35.4584 29.4309 35.5309 29.5034 35.5819 29.5905C35.6372 29.6855 35.6642 29.7943 35.6597 29.9042C35.6591 30.0138 35.6262 30.1208 35.565 30.2117C35.4869 30.3197 35.3714 30.3947 35.241 30.4222V30.4433C35.3816 30.4717 35.5118 30.538 35.6176 30.6349C35.6663 30.6877 35.7037 30.7498 35.7276 30.8175C35.7515 30.8852 35.7613 30.9571 35.7565 31.0287C35.7597 31.1453 35.7305 31.2604 35.6723 31.3614C35.6176 31.4531 35.5409 31.5298 35.4493 31.5846C35.347 31.6464 35.2343 31.6892 35.1168 31.711C34.9855 31.7393 34.8514 31.7534 34.717 31.7531L33.5934 31.7426ZM34.3172 30.2159H34.6097C34.7032 30.2237 34.7968 30.2016 34.877 30.1527C34.9038 30.1316 34.9251 30.1043 34.939 30.0731C34.953 30.0419 34.9591 30.0078 34.9569 29.9737C34.9588 29.9392 34.9528 29.9048 34.9393 29.873C34.9258 29.8413 34.9052 29.813 34.8791 29.7905C34.8004 29.7399 34.7071 29.7169 34.6139 29.7252H34.3172V30.2159ZM34.3172 31.2519H34.6749C34.7766 31.2616 34.8783 31.2339 34.9611 31.174C34.989 31.1468 35.0107 31.1139 35.0249 31.0776C35.039 31.0413 35.0453 31.0023 35.0432 30.9634C35.0435 30.9278 35.0357 30.8926 35.0204 30.8605C35.0051 30.8284 34.9827 30.8002 34.9548 30.7781C34.8718 30.7205 34.7714 30.6937 34.6707 30.7023H34.3172V31.2519Z" fill="#F2A33B"/>
<path d="M36.6656 31.7426V29.2346H37.381V29.9316C37.381 30.058 37.381 30.197 37.3621 30.3528C37.3432 30.5086 37.3347 30.6644 37.3221 30.8203H37.3368C37.3761 30.7417 37.4245 30.6532 37.482 30.5549C37.5409 30.456 37.5872 30.3675 37.6251 30.2938L38.2753 29.2409H38.9529V31.7489H38.2353V31.0498C38.2353 30.9235 38.2353 30.7803 38.2564 30.6286C38.2774 30.477 38.2837 30.3191 38.3006 30.1633H38.2816C38.2395 30.2412 38.1932 30.3296 38.1364 30.4307L37.9933 30.6897L37.341 31.7426H36.6656Z" fill="#F2A33B"/>
<path d="M41.1033 31.7973C40.9371 31.7989 40.7722 31.7689 40.6172 31.7089C40.47 31.6531 40.3365 31.5662 40.2259 31.4541C40.1105 31.3371 40.0209 31.1972 39.9628 31.0435C39.8952 30.8646 39.8624 30.6745 39.866 30.4833C39.8628 30.2919 39.8993 30.1018 39.9734 29.9253C40.0375 29.7696 40.1344 29.6296 40.2574 29.5147C40.3792 29.4019 40.5223 29.3145 40.6783 29.2578C40.8365 29.1988 41.0039 29.1689 41.1727 29.1693C41.3167 29.1655 41.46 29.1913 41.5936 29.2451C41.7093 29.2933 41.8171 29.3586 41.9134 29.4389L41.5662 29.919C41.4743 29.8313 41.3542 29.779 41.2274 29.7716C41.1473 29.7692 41.0677 29.7852 40.9948 29.8184C40.9218 29.8516 40.8574 29.9012 40.8066 29.9632C40.7043 30.1177 40.6497 30.299 40.6497 30.4844C40.6497 30.6698 40.7043 30.851 40.8066 31.0056C40.8546 31.066 40.9158 31.1147 40.9854 31.1479C41.0551 31.1811 41.1314 31.1979 41.2085 31.1972C41.2899 31.1964 41.3702 31.1784 41.4442 31.1445C41.5185 31.1081 41.589 31.0644 41.6546 31.014L41.9471 31.5004C41.8295 31.6038 41.692 31.6819 41.5431 31.7299C41.4011 31.7759 41.2526 31.7987 41.1033 31.7973Z" fill="#F2A33B"/>
<path d="M44.188 31.7426V29.2346H44.9287V30.1401H45.7325V29.2346H46.4753V31.7426H45.7325V30.7866H44.9287V31.7426H44.188Z" fill="#F2A33B"/>
<path d="M48.6068 31.7973C48.4489 31.7977 48.2925 31.7677 48.146 31.7089C47.9998 31.651 47.8667 31.5643 47.7546 31.4541C47.6388 31.3362 47.5473 31.1966 47.4853 31.0435C47.3505 30.6829 47.3505 30.2858 47.4853 29.9253C47.5466 29.7717 47.6382 29.6321 47.7546 29.5147C47.8666 29.4037 47.9997 29.3164 48.146 29.2578C48.2925 29.1989 48.4489 29.1689 48.6068 29.1693C48.7633 29.1691 48.9183 29.1992 49.0634 29.2578C49.2088 29.3169 49.3411 29.4042 49.4527 29.5147C49.5691 29.6321 49.6607 29.7717 49.722 29.9253C49.8567 30.2858 49.8567 30.6829 49.722 31.0435C49.6599 31.1966 49.5684 31.3362 49.4527 31.4541C49.3409 31.5638 49.2087 31.6504 49.0634 31.7089C48.9183 31.7675 48.7633 31.7975 48.6068 31.7973V31.7973ZM48.6068 31.1972C48.676 31.1997 48.7446 31.1831 48.805 31.1493C48.8655 31.1156 48.9156 31.0658 48.9498 31.0056C49.0261 30.8424 49.0656 30.6645 49.0656 30.4844C49.0656 30.3043 49.0261 30.1263 48.9498 29.9632C48.9133 29.9044 48.8625 29.8559 48.8021 29.8223C48.7418 29.7887 48.6738 29.771 48.6047 29.771C48.5356 29.771 48.4676 29.7887 48.4072 29.8223C48.3468 29.8559 48.296 29.9044 48.2596 29.9632C48.1847 30.1267 48.1459 30.3045 48.1459 30.4844C48.1459 30.6643 48.1847 30.842 48.2596 31.0056C48.2936 31.0673 48.344 31.1183 48.4054 31.1529C48.4667 31.1875 48.5365 31.2043 48.6068 31.2014V31.1972Z" fill="#F2A33B"/>
<path d="M50.7384 31.7426V29.2346H51.8052C51.9372 29.2334 52.0689 29.2447 52.1987 29.2683C52.3105 29.2861 52.4181 29.3239 52.5165 29.3799C52.6034 29.4309 52.6759 29.5034 52.7269 29.5905C52.7855 29.6838 52.8161 29.7919 52.8152 29.9021C52.8147 30.0117 52.7817 30.1187 52.7206 30.2096C52.6424 30.3176 52.5269 30.3926 52.3965 30.4201V30.4412C52.5371 30.4696 52.6674 30.5359 52.7732 30.6328C52.8218 30.6856 52.8592 30.7477 52.8831 30.8154C52.907 30.8831 52.9168 30.955 52.912 31.0266C52.9152 31.1431 52.8861 31.2583 52.8279 31.3593C52.7731 31.451 52.6965 31.5277 52.6048 31.5825C52.5025 31.6443 52.3899 31.6871 52.2724 31.7089C52.141 31.7372 52.007 31.7513 51.8726 31.751L50.7384 31.7426ZM51.4623 30.2159H51.7632C51.8567 30.2237 51.9503 30.2016 52.0304 30.1527C52.0572 30.1316 52.0785 30.1043 52.0924 30.0731C52.1064 30.0419 52.1125 30.0078 52.1103 29.9737C52.1123 29.9392 52.1062 29.9048 52.0927 29.873C52.0792 29.8413 52.0586 29.813 52.0325 29.7905C51.9538 29.7399 51.8605 29.7169 51.7674 29.7252H51.4707L51.4623 30.2159ZM51.4623 31.2519H51.82C51.9216 31.2616 52.0234 31.2339 52.1061 31.174C52.134 31.1468 52.1557 31.1139 52.1699 31.0776C52.1841 31.0413 52.1903 31.0023 52.1882 30.9634C52.1885 30.9278 52.1807 30.8926 52.1654 30.8605C52.1501 30.8284 52.1277 30.8002 52.0998 30.7781C52.0169 30.7205 51.9164 30.6937 51.8158 30.7023H51.4623V31.2519Z" fill="#F2A33B"/>
<path d="M54.8857 31.7973C54.7279 31.7973 54.5715 31.7673 54.4249 31.7089C54.2787 31.651 54.1457 31.5643 54.0335 31.4541C53.9178 31.3362 53.8263 31.1967 53.7642 31.0435C53.6295 30.6829 53.6295 30.2858 53.7642 29.9253C53.8255 29.7717 53.9171 29.6321 54.0335 29.5147C54.1456 29.4037 54.2786 29.3164 54.4249 29.2578C54.5715 29.1993 54.7279 29.1693 54.8857 29.1693C55.0423 29.1734 55.1966 29.2077 55.3402 29.2704C55.4859 29.3291 55.6183 29.4164 55.7295 29.5273C55.8459 29.6447 55.9375 29.7843 55.9988 29.9379C56.1336 30.2985 56.1336 30.6956 55.9988 31.0561C55.9368 31.2093 55.8453 31.3488 55.7295 31.4667C55.6174 31.5739 55.4851 31.6577 55.3402 31.7131C55.1955 31.77 55.0412 31.7986 54.8857 31.7973ZM54.8857 31.1972C54.9549 31.1997 55.0235 31.1831 55.084 31.1493C55.1445 31.1156 55.1945 31.0658 55.2287 31.0056C55.305 30.8424 55.3445 30.6645 55.3445 30.4844C55.3445 30.3043 55.305 30.1263 55.2287 29.9632C55.1923 29.9044 55.1415 29.8559 55.0811 29.8223C55.0207 29.7887 54.9527 29.771 54.8836 29.771C54.8145 29.771 54.7466 29.7887 54.6862 29.8223C54.6258 29.8559 54.575 29.9044 54.5385 29.9632C54.4636 30.1267 54.4249 30.3045 54.4249 30.4844C54.4249 30.6643 54.4636 30.842 54.5385 31.0056C54.5725 31.0673 54.623 31.1183 54.6843 31.1529C54.7456 31.1875 54.8154 31.2043 54.8857 31.2014V31.1972Z" fill="#F2A33B"/>
<path d="M57.0236 31.7426V29.2346H58.7448V29.8158H57.7642V31.7426H57.0236Z" fill="#F2A33B"/>
<path d="M60.506 31.7973C60.3489 31.7975 60.1932 31.7675 60.0473 31.7089C59.9006 31.652 59.7673 31.5653 59.6559 31.4541C59.5386 31.337 59.4463 31.1973 59.3845 31.0435C59.2498 30.6829 59.2498 30.2858 59.3845 29.9253C59.4458 29.7712 59.5382 29.6314 59.6559 29.5147C59.7673 29.4029 59.9005 29.3154 60.0473 29.2578C60.1932 29.1991 60.3489 29.1691 60.506 29.1693C60.6625 29.1689 60.8176 29.199 60.9627 29.2578C61.1083 29.3164 61.2407 29.4038 61.3519 29.5147C61.469 29.6315 61.5607 29.7713 61.6213 29.9253C61.756 30.2858 61.756 30.6829 61.6213 31.0435C61.5602 31.1972 61.4686 31.3369 61.3519 31.4541C61.2406 31.5643 61.1082 31.651 60.9627 31.7089C60.8176 31.7677 60.6625 31.7977 60.506 31.7973V31.7973ZM60.506 31.1972C60.5753 31.1997 60.6438 31.1831 60.7043 31.1493C60.7648 31.1156 60.8148 31.0658 60.849 31.0056C60.9253 30.8424 60.9648 30.6645 60.9648 30.4844C60.9648 30.3043 60.9253 30.1263 60.849 29.9632C60.8129 29.9044 60.7623 29.8559 60.702 29.8222C60.6418 29.7885 60.574 29.7708 60.505 29.7708C60.436 29.7708 60.3682 29.7885 60.308 29.8222C60.2477 29.8559 60.1971 29.9044 60.161 29.9632C60.0861 30.1267 60.0473 30.3045 60.0473 30.4844C60.0473 30.6643 60.0861 30.842 60.161 31.0056C60.1946 31.0671 60.2447 31.118 60.3056 31.1526C60.3666 31.1872 60.436 31.2041 60.506 31.2014V31.1972Z" fill="#F2A33B"/>
<path d="M65.3288 32.6713V32.029L65.3477 31.65C65.2811 31.6924 65.2107 31.7283 65.1373 31.7574C65.0593 31.7869 64.9766 31.8018 64.8932 31.8016C64.7546 31.8043 64.6174 31.7733 64.4934 31.7111C64.3742 31.6488 64.2706 31.5602 64.1904 31.4521C64.0997 31.3252 64.034 31.1823 63.9968 31.0309C63.9482 30.8511 63.9248 30.6654 63.9274 30.4792C63.9253 30.2926 63.9538 30.107 64.0116 29.9296C64.0573 29.7782 64.1284 29.6358 64.222 29.5084C64.3053 29.4008 64.4108 29.3125 64.5313 29.2494C64.6404 29.1896 64.7625 29.1578 64.8869 29.1567C64.976 29.1551 65.0649 29.1679 65.1499 29.1946C65.2207 29.2186 65.2879 29.2519 65.3498 29.2936L65.3309 28.9293V28.1818H66.0526V28.9293L66.0274 29.3147C66.105 29.2683 66.1876 29.2309 66.2736 29.2031C66.3603 29.1732 66.4512 29.1576 66.5429 29.1567C66.6739 29.1631 66.8012 29.2022 66.9132 29.2705C67.0285 29.3318 67.1273 29.4199 67.2015 29.5274C67.2855 29.65 67.3482 29.786 67.3867 29.9296C67.4313 30.1 67.4532 30.2756 67.4519 30.4518C67.4554 30.6467 67.427 30.8409 67.3678 31.0267C67.3222 31.1781 67.251 31.3205 67.1573 31.4478C67.0733 31.558 66.9663 31.6485 66.8438 31.7132C66.7158 31.7795 66.5724 31.8104 66.4285 31.8026C66.2846 31.7949 66.1454 31.7487 66.0253 31.6689L66.0505 32.0311V32.6734L65.3288 32.6713ZM65.0805 31.1973C65.1302 31.1983 65.1795 31.1892 65.2255 31.1703C65.2715 31.1515 65.3131 31.1234 65.3477 31.0878V29.879C65.3076 29.8426 65.2592 29.8165 65.2067 29.8032C65.1594 29.7903 65.1106 29.7833 65.0616 29.7822C65.0059 29.7845 64.9519 29.8015 64.905 29.8314C64.8581 29.8614 64.8199 29.9032 64.7943 29.9527C64.7075 30.1146 64.6688 30.2981 64.6828 30.4813C64.6698 30.6689 64.7053 30.8568 64.7859 31.0267C64.815 31.079 64.8578 31.1223 64.9098 31.152C64.9617 31.1816 65.0207 31.1966 65.0805 31.1951V31.1973ZM66.303 31.1973C66.3615 31.1964 66.4186 31.1799 66.4685 31.1496C66.5185 31.1192 66.5594 31.0761 66.5871 31.0246C66.6729 30.8495 66.7106 30.6547 66.6965 30.4602C66.6965 30.0096 66.5703 29.7822 66.3178 29.7822C66.2685 29.7823 66.2195 29.7901 66.1726 29.8053C66.1187 29.824 66.0687 29.8526 66.0253 29.8896V31.0962C66.0661 31.1331 66.1141 31.161 66.1663 31.1783C66.2109 31.1898 66.2569 31.1955 66.303 31.1951V31.1973Z" fill="#F2A33B"/>
<path d="M69.4635 31.7973C69.3064 31.7975 69.1506 31.7675 69.0048 31.7088C68.8586 31.6509 68.7256 31.5643 68.6134 31.454C68.4968 31.3368 68.4051 31.1971 68.3441 31.0434C68.2094 30.6829 68.2094 30.2858 68.3441 29.9252C68.4046 29.7713 68.4963 29.6315 68.6134 29.5146C68.7254 29.4037 68.8585 29.3163 69.0048 29.2577C69.2993 29.1398 69.6278 29.1398 69.9222 29.2577C70.0676 29.3169 70.1999 29.4042 70.3115 29.5146C70.4279 29.632 70.5195 29.7717 70.5809 29.9252C70.7156 30.2858 70.7156 30.6829 70.5809 31.0434C70.5188 31.1966 70.4273 31.3361 70.3115 31.454C70.1998 31.5638 70.0675 31.6504 69.9222 31.7088C69.7765 31.7677 69.6207 31.7977 69.4635 31.7973ZM69.4635 31.1971C69.533 31.1996 69.6018 31.183 69.6626 31.1492C69.7234 31.1155 69.7739 31.0658 69.8086 31.0055C69.8849 30.8424 69.9244 30.6644 69.9244 30.4843C69.9244 30.3042 69.8849 30.1263 69.8086 29.9631C69.7742 29.9026 69.7239 29.8526 69.663 29.8188C69.6021 29.785 69.5331 29.7686 69.4635 29.7715C69.3939 29.7682 69.3247 29.7843 69.2637 29.8182C69.2027 29.852 69.1524 29.9022 69.1184 29.9631C69.0435 30.1267 69.0048 30.3044 69.0048 30.4843C69.0048 30.6642 69.0435 30.842 69.1184 31.0055C69.1522 31.0669 69.2024 31.1177 69.2633 31.1523C69.3242 31.1868 69.3935 31.2038 69.4635 31.2013V31.1971Z" fill="#F2A33B"/>
<path d="M71.5952 32.6712V29.2346H72.2012L72.2517 29.4831H72.2727C72.3722 29.3974 72.4835 29.3265 72.6031 29.2725C72.7217 29.2145 72.8519 29.1843 72.9839 29.184C73.1261 29.1822 73.2667 29.214 73.3943 29.2767C73.5155 29.3368 73.6208 29.4249 73.7015 29.5336C73.7906 29.6546 73.8569 29.7909 73.8972 29.9358C73.9435 30.1059 73.9662 30.2817 73.9645 30.458C73.9677 30.6533 73.9378 30.8477 73.8761 31.0329C73.8233 31.1867 73.7427 31.3295 73.6383 31.4541C73.5451 31.5652 73.4297 31.6556 73.2996 31.7194C73.1777 31.7791 73.0438 31.8101 72.9082 31.8099C72.8 31.8105 72.693 31.7875 72.5947 31.7426C72.4905 31.6943 72.3952 31.6288 72.3127 31.5488L72.3379 31.9468V32.6796L71.5952 32.6712ZM72.7377 31.1972C72.8022 31.1965 72.8656 31.1805 72.9227 31.1505C72.9798 31.1205 73.0289 31.0773 73.066 31.0245C73.1706 30.8558 73.2185 30.658 73.2028 30.4601C73.2028 30.0095 73.0576 29.7821 72.7672 29.7821C72.6852 29.7889 72.6055 29.8127 72.5331 29.8518C72.4606 29.891 72.3971 29.9446 72.3464 30.0095V31.0371C72.4081 31.0919 72.4794 31.1348 72.5568 31.1635C72.6151 31.1832 72.6762 31.1939 72.7377 31.1951V31.1972Z" fill="#F2A33B"/>
<path d="M74.8924 31.7426V29.2346H75.7341L76.0455 30.0938C76.0813 30.1949 76.1107 30.2917 76.1402 30.3844C76.1696 30.477 76.197 30.5676 76.2222 30.656H76.2433C76.2727 30.5676 76.3043 30.477 76.3338 30.3844C76.3632 30.2917 76.3948 30.1949 76.4242 30.0938L76.7188 29.2346H77.5605V31.7426H76.9019V31.1003C76.9019 31.033 76.9019 30.9508 76.9019 30.8582C76.9019 30.7655 76.9145 30.6644 76.9229 30.5634C76.9314 30.4623 76.9398 30.3654 76.9482 30.2686C76.9566 30.1717 76.9629 30.0896 76.9692 30.018H76.9503C76.9124 30.1296 76.8724 30.2475 76.8282 30.3717C76.7841 30.496 76.7441 30.6139 76.7083 30.7213L76.4137 31.5236H76.0097L75.713 30.7213C75.6752 30.6139 75.6352 30.496 75.5889 30.3696L75.4647 30.018H75.4458C75.4458 30.0896 75.4584 30.1717 75.4668 30.2686C75.4753 30.3654 75.4837 30.4623 75.4921 30.5634C75.5005 30.6644 75.5089 30.7739 75.5152 30.8582C75.5216 30.9424 75.5152 31.033 75.5152 31.1003V31.7426H74.8924Z" fill="#F2A33B"/>
<path d="M79.2607 31.7973C79.1549 31.7987 79.0498 31.7794 78.9514 31.7404C78.8624 31.7034 78.7822 31.6482 78.7157 31.5783C78.6518 31.508 78.6011 31.4267 78.5663 31.3382C78.5308 31.2426 78.513 31.1412 78.5137 31.0392C78.5106 30.9163 78.5398 30.7948 78.5986 30.6868C78.6573 30.5789 78.7434 30.4883 78.8483 30.4243C79.1787 30.2427 79.5468 30.1403 79.9235 30.1253C79.9222 30.0281 79.8872 29.9343 79.8246 29.86C79.7852 29.8238 79.7386 29.7963 79.6878 29.7792C79.6371 29.7622 79.5833 29.756 79.5301 29.761C79.4199 29.7617 79.3108 29.7824 79.2081 29.8221C79.0904 29.8688 78.9765 29.9244 78.8672 29.9884L78.6 29.4978C78.7637 29.4032 78.9373 29.3269 79.1176 29.2703C79.2991 29.2081 79.4897 29.1768 79.6816 29.1777C79.8172 29.1686 79.9532 29.1885 80.0805 29.236C80.2079 29.2836 80.3236 29.3577 80.4201 29.4536C80.6106 29.6966 80.7023 30.0028 80.6768 30.3106V31.7467H80.0708L80.0203 31.4877H79.9993C79.8968 31.5786 79.7829 31.6558 79.6605 31.7173C79.5357 31.7758 79.3985 31.8033 79.2607 31.7973V31.7973ZM79.5132 31.2224C79.5872 31.2229 79.6599 31.2032 79.7236 31.1656C79.7934 31.1213 79.8576 31.069 79.9151 31.0097V30.5696C79.724 30.584 79.5381 30.6393 79.3701 30.7318C79.3258 30.7578 79.2886 30.7946 79.2622 30.8388C79.2357 30.8829 79.2207 30.933 79.2186 30.9845C79.2162 31.0184 79.222 31.0524 79.2356 31.0835C79.2491 31.1147 79.27 31.1421 79.2965 31.1634C79.3592 31.209 79.4358 31.2313 79.5132 31.2266V31.2224Z" fill="#F2A33B"/>
<path d="M82.1456 31.7426V29.8158H81.4071V29.2346H83.6291V29.8158H82.8884V31.7426H82.1456Z" fill="#F2A33B"/>
<path d="M85.0241 31.7973C84.9176 31.799 84.8118 31.7797 84.7127 31.7404C84.6241 31.7039 84.5444 31.6486 84.4791 31.5783C84.4145 31.5086 84.3637 31.4271 84.3297 31.3382C84.2934 31.2428 84.2755 31.1413 84.2771 31.0392C84.2735 30.9165 84.3024 30.795 84.3608 30.687C84.4191 30.5791 84.505 30.4884 84.6096 30.4243C84.9402 30.243 85.3082 30.1406 85.6848 30.1253C85.6835 30.0281 85.6485 29.9343 85.5859 29.86C85.5466 29.8236 85.5 29.7959 85.4493 29.7789C85.3985 29.7618 85.3447 29.7557 85.2914 29.761C85.1819 29.7617 85.0735 29.7824 84.9715 29.8221C84.8535 29.868 84.7395 29.9236 84.6306 29.9884L84.3613 29.4978C84.522 29.401 84.6928 29.3219 84.8705 29.2619C85.0513 29.1999 85.2412 29.1685 85.4323 29.1693C85.5683 29.1601 85.7046 29.18 85.8323 29.2275C85.96 29.2751 86.0761 29.3493 86.173 29.4451C86.3627 29.6885 86.4536 29.9946 86.4276 30.3022V31.7383H85.8216L85.7711 31.4793H85.7501C85.6483 31.5702 85.5351 31.6473 85.4134 31.7089C85.2924 31.7685 85.159 31.7988 85.0241 31.7973ZM85.2766 31.2224C85.3507 31.2232 85.4235 31.2036 85.487 31.1656C85.5571 31.1218 85.6214 31.0695 85.6785 31.0097V30.5696C85.4874 30.584 85.3015 30.6393 85.1335 30.7318C85.0892 30.7578 85.052 30.7946 85.0256 30.8388C84.9991 30.8829 84.9841 30.933 84.982 30.9845C84.9796 31.0184 84.9854 31.0524 84.999 31.0835C85.0125 31.1147 85.0334 31.1421 85.0599 31.1635C85.1227 31.2089 85.1993 31.2312 85.2766 31.2266V31.2224Z" fill="#F2A33B"/>
<path d="M89.5482 5.35081C89.3527 5.35253 89.1589 5.31531 88.9779 5.24131C88.8032 5.1697 88.6445 5.0639 88.5112 4.93011C88.3779 4.79631 88.2726 4.63722 88.2015 4.46217C88.05 4.08007 88.05 3.6545 88.2015 3.2724C88.2734 3.0969 88.3793 2.93732 88.5129 2.80281C88.6461 2.67064 88.8042 2.56615 88.9779 2.49536C89.1589 2.42136 89.3527 2.38413 89.5482 2.38586C89.7416 2.3843 89.9333 2.42153 90.1121 2.49536C90.2852 2.5662 90.4425 2.6707 90.575 2.80281C90.708 2.93783 90.8137 3.09728 90.8864 3.2724C91.0379 3.6545 91.0379 4.08007 90.8864 4.46217C90.8142 4.63754 90.7084 4.79707 90.575 4.93176C90.4426 5.06454 90.2853 5.16975 90.1121 5.24131C89.9333 5.31514 89.7416 5.35237 89.5482 5.35081V5.35081ZM89.5482 4.99072C89.6882 4.99564 89.8278 4.97121 89.9579 4.91899C90.088 4.86677 90.2057 4.78791 90.3036 4.68749C90.4037 4.5769 90.4811 4.44763 90.5313 4.30706C90.5815 4.1665 90.6035 4.01741 90.596 3.86833C90.6037 3.71923 90.5818 3.57008 90.5317 3.42949C90.4815 3.28889 90.4039 3.15964 90.3036 3.04918C90.2064 2.94734 90.0889 2.86699 89.9588 2.81331C89.8287 2.75964 89.6888 2.73382 89.5482 2.73753C89.4038 2.73629 89.2607 2.76423 89.1273 2.81965C89.0021 2.87363 88.8896 2.95325 88.797 3.05339C88.7031 3.15464 88.6314 3.27443 88.5866 3.40506C88.534 3.55376 88.5084 3.71063 88.5108 3.86833C88.5085 4.02534 88.5342 4.18149 88.5866 4.3295C88.6314 4.46078 88.703 4.58126 88.797 4.68327C88.8919 4.78005 89.0049 4.8573 89.1294 4.9107C89.2625 4.96417 89.4047 4.99135 89.5482 4.99072V4.99072ZM88.9527 4.58009V3.13341H89.6071C89.7561 3.12907 89.9028 3.1702 90.0279 3.25134C90.0844 3.29345 90.1293 3.34905 90.1587 3.41307C90.1882 3.47708 90.201 3.54746 90.1962 3.61775C90.1983 3.7022 90.1749 3.78531 90.1291 3.85629C90.0833 3.92726 90.0173 3.98282 89.9395 4.01574L90.2404 4.58009H89.8007L89.5797 4.13998H89.3693V4.58009H88.9527ZM89.3735 3.84517H89.5271C89.556 3.84828 89.5852 3.84506 89.6127 3.83572C89.6402 3.82639 89.6653 3.81117 89.6864 3.79113C89.7074 3.77109 89.7238 3.7467 89.7345 3.71967C89.7451 3.69264 89.7497 3.6636 89.7481 3.63459C89.7484 3.60929 89.7438 3.58417 89.7344 3.56068C89.725 3.53719 89.711 3.51579 89.6933 3.49772C89.6471 3.4586 89.5875 3.43897 89.5271 3.44297H89.3735V3.84517Z" fill="#313B50"/>
</g>
<defs>
<linearGradient id="paint0_linear_1_260" x1="0.174706" y1="25.6358" x2="9.52153" y2="25.6358" gradientUnits="userSpaceOnUse">
<stop stop-color="#E3A133"/>
<stop offset="1" stop-color="#D05C2D"/>
</linearGradient>
<linearGradient id="paint1_linear_1_260" x1="514.848" y1="316.418" x2="930.034" y2="316.418" gradientUnits="userSpaceOnUse">
<stop stop-color="#E3A133"/>
<stop offset="1" stop-color="#D05C2D"/>
</linearGradient>
<linearGradient id="paint2_linear_1_260" x1="256.51" y1="43.5054" x2="980.068" y2="43.5054" gradientUnits="userSpaceOnUse">
<stop stop-color="#E3A133"/>
<stop offset="1" stop-color="#D05C2D"/>
</linearGradient>
<linearGradient id="paint3_linear_1_260" x1="7.79187" y1="34" x2="7.79187" y2="4.29163" gradientUnits="userSpaceOnUse">
<stop stop-color="#E3A133"/>
<stop offset="1" stop-color="#EDDC36"/>
</linearGradient>
<linearGradient id="paint4_linear_1_260" x1="103.266" y1="158.811" x2="514.164" y2="158.811" gradientUnits="userSpaceOnUse">
<stop stop-color="#E3A133"/>
<stop offset="1" stop-color="#D05C2D"/>
</linearGradient>
<linearGradient id="paint5_linear_1_260" x1="103.361" y1="119.705" x2="514.259" y2="119.705" gradientUnits="userSpaceOnUse">
<stop stop-color="#E3A133"/>
<stop offset="1" stop-color="#D05C2D"/>
</linearGradient>
<linearGradient id="paint6_linear_1_260" x1="0.472857" y1="84.0716" x2="637.917" y2="84.0716" gradientUnits="userSpaceOnUse">
<stop stop-color="#E3A133"/>
<stop offset="1" stop-color="#D05C2D"/>
</linearGradient>
<clipPath id="clip0_1_260">
<rect width="91" height="34" fill="white"/>
</clipPath>
</defs>
</svg>
