<svg width="54" height="58" viewBox="0 0 54 58" fill="none" xmlns="http://www.w3.org/2000/svg">
<path d="M5.4375 17.75H27.9375C28.1861 17.75 28.4246 17.6512 28.6004 17.4754C28.7762 17.2996 28.875 17.0611 28.875 16.8125V9.3125C28.875 9.06386 28.7762 8.8254 28.6004 8.64959C28.4246 8.47377 28.1861 8.375 27.9375 8.375H5.4375C5.18886 8.375 4.9504 8.47377 4.77459 8.64959C4.59877 8.8254 4.5 9.06386 4.5 9.3125V16.8125C4.5 17.0611 4.59877 17.2996 4.77459 17.4754C4.9504 17.6512 5.18886 17.75 5.4375 17.75ZM6.375 10.25H27V15.875H6.375V10.25Z" fill="#F2A33B"/>
<path d="M4.5 4.625H6.375V6.5H4.5V4.625Z" fill="#F2A33B"/>
<path d="M8.25 4.625H10.125V6.5H8.25V4.625Z" fill="#F2A33B"/>
<path d="M15.75 20.5625H17.625V23.375H15.75V20.5625Z" fill="#F2A33B"/>
<path d="M5.4375 30.875H8.25V32.75H5.4375V30.875Z" fill="#F2A33B"/>
<path d="M25.125 30.875H27.9375V32.75H25.125V30.875Z" fill="#F2A33B"/>
<path d="M15.75 40.25H17.625V43.0625H15.75V40.25Z" fill="#F2A33B"/>
<path d="M7.3125 44C6.75624 44 6.21247 44.165 5.74996 44.474C5.28745 44.783 4.92696 45.2223 4.71409 45.7362C4.50122 46.2501 4.44552 46.8156 4.55404 47.3612C4.66256 47.9068 4.93043 48.4079 5.32376 48.8012C5.7171 49.1946 6.21824 49.4624 6.76381 49.571C7.30938 49.6795 7.87488 49.6238 8.3888 49.4109C8.90271 49.198 9.34196 48.8376 9.651 48.375C9.96005 47.9125 10.125 47.3688 10.125 46.8125C10.125 46.0666 9.82868 45.3512 9.30124 44.8238C8.77379 44.2963 8.05842 44 7.3125 44ZM7.3125 47.75C7.12708 47.75 6.94582 47.695 6.79165 47.592C6.63748 47.489 6.51732 47.3426 6.44636 47.1713C6.37541 47 6.35684 46.8115 6.39301 46.6296C6.42919 46.4477 6.51848 46.2807 6.64959 46.1496C6.7807 46.0185 6.94775 45.9292 7.1296 45.893C7.31146 45.8568 7.49996 45.8754 7.67126 45.9464C7.84257 46.0173 7.98899 46.1375 8.092 46.2917C8.19501 46.4458 8.25 46.6271 8.25 46.8125C8.25 47.0611 8.15123 47.2996 7.97541 47.4754C7.7996 47.6512 7.56114 47.75 7.3125 47.75Z" fill="#F2A33B"/>
<path d="M14.8125 44C14.2562 44 13.7124 44.165 13.2499 44.474C12.7874 44.783 12.4269 45.2223 12.2141 45.7362C12.0012 46.2501 11.9455 46.8156 12.054 47.3612C12.1625 47.9068 12.4304 48.4079 12.8237 48.8012C13.2171 49.1946 13.7182 49.4624 14.2638 49.571C14.8093 49.6795 15.3748 49.6238 15.8888 49.4109C16.4027 49.198 16.8419 48.8376 17.151 48.375C17.46 47.9125 17.625 47.3688 17.625 46.8125C17.625 46.0666 17.3287 45.3512 16.8012 44.8238C16.2738 44.2963 15.5584 44 14.8125 44ZM14.8125 47.75C14.627 47.75 14.4458 47.695 14.2916 47.592C14.1375 47.489 14.0173 47.3426 13.9463 47.1713C13.8754 47 13.8568 46.8115 13.893 46.6296C13.9292 46.4477 14.0184 46.2807 14.1496 46.1496C14.2807 46.0185 14.4477 45.9292 14.6296 45.893C14.8114 45.8568 14.9999 45.8754 15.1712 45.9464C15.3425 46.0173 15.489 46.1375 15.592 46.2917C15.695 46.4458 15.75 46.6271 15.75 46.8125C15.75 47.0611 15.6512 47.2996 15.4754 47.4754C15.2996 47.6512 15.0611 47.75 14.8125 47.75Z" fill="#F2A33B"/>
<path d="M23.25 31.8125C23.25 30.5146 22.8651 29.2458 22.144 28.1666C21.4229 27.0874 20.398 26.2462 19.1988 25.7495C17.9997 25.2528 16.6802 25.1229 15.4072 25.3761C14.1342 25.6293 12.9649 26.2543 12.0471 27.1721C11.1293 28.0899 10.5043 29.2592 10.2511 30.5322C9.99785 31.8052 10.1278 33.1247 10.6245 34.3239C11.1212 35.523 11.9623 36.5479 13.0415 37.269C14.1207 37.9901 15.3895 38.375 16.6875 38.375C18.4273 38.3728 20.0952 37.6807 21.3254 36.4504C22.5556 35.2202 23.2477 33.5523 23.25 31.8125V31.8125ZM13.875 35.5381C13.2933 35.1066 12.8207 34.5449 12.4951 33.8979C12.1695 33.251 11.9999 32.5368 11.9999 31.8125C11.9999 31.0882 12.1695 30.374 12.4951 29.7271C12.8207 29.0801 13.2933 28.5184 13.875 28.0869V35.5381ZM17.625 36.4053C17.0063 36.5316 16.3686 36.5316 15.75 36.4053V27.2188C16.3686 27.0925 17.0063 27.0925 17.625 27.2188V36.4053ZM19.5 35.5381V28.0869C20.0817 28.5184 20.5542 29.0801 20.8799 29.7271C21.2055 30.374 21.3751 31.0882 21.3751 31.8125C21.3751 32.5368 21.2055 33.251 20.8799 33.8979C20.5542 34.5449 20.0817 35.1066 19.5 35.5381V35.5381Z" fill="#F2A33B"/>
<path d="M9.45865 23.0999L10.7845 21.774L12.6592 23.6487L11.3334 24.9746L9.45865 23.0999Z" fill="#F2A33B"/>
<path d="M5.85608 26.9761L6.89658 25.4163L9.70891 27.2923L8.66841 28.8521L5.85608 26.9761Z" fill="#F2A33B"/>
<path d="M20.7068 23.6494L22.5815 21.7747L23.9073 23.1005L22.0326 24.9752L20.7068 23.6494Z" fill="#F2A33B"/>
<path d="M23.6737 27.2732L26.486 25.3972L27.5265 26.957L24.7142 28.833L23.6737 27.2732Z" fill="#F2A33B"/>
<path d="M9.45676 39.5845L11.3315 37.7098L12.6573 39.0356L10.7826 40.9103L9.45676 39.5845Z" fill="#F2A33B"/>
<path d="M5.86487 35.7156L8.6772 33.8395L9.71769 35.3994L6.90536 37.2754L5.86487 35.7156Z" fill="#F2A33B"/>
<path d="M20.7059 39.0359L22.0318 37.7101L23.9065 39.5848L22.5807 40.9106L20.7059 39.0359Z" fill="#F2A33B"/>
<path d="M23.6741 35.4163L24.7146 33.8565L27.5269 35.7325L26.4864 37.2923L23.6741 35.4163Z" fill="#F2A33B"/>
<path d="M4.5 19.625H8.25V21.5H4.5V19.625Z" fill="#F2A33B"/>
<path d="M25.125 19.625H28.875V21.5H25.125V19.625Z" fill="#F2A33B"/>
<path d="M52.3125 19.625H51.2653L50.43 12.9463C50.4017 12.7196 50.2915 12.511 50.1203 12.3598C49.949 12.2086 49.7285 12.1251 49.5 12.125V8.375H47.625V12.125C47.3965 12.1251 47.176 12.2086 47.0047 12.3598C46.8335 12.511 46.7233 12.7196 46.695 12.9463L45.8597 19.625H44.8125C44.5639 19.625 44.3254 19.7238 44.1496 19.8996C43.9738 20.0754 43.875 20.3139 43.875 20.5625V24.3125C43.875 24.5611 43.9738 24.7996 44.1496 24.9754C44.3254 25.1512 44.5639 25.25 44.8125 25.25H45.75V42.125C45.7499 42.1695 45.753 42.214 45.7594 42.2581L46.6969 48.8206C46.7289 49.0439 46.8404 49.2482 47.0109 49.396C47.1814 49.5437 47.3994 49.625 47.625 49.625V54.3125C47.625 54.5611 47.5262 54.7996 47.3504 54.9754C47.1746 55.1512 46.9361 55.25 46.6875 55.25H39.1631C39.7836 54.4434 40.1216 53.4551 40.125 52.4375V43.0625C40.3506 43.0625 40.5686 42.9812 40.7391 42.8335C40.9096 42.6857 41.0211 42.4814 41.0531 42.2581L41.9906 35.6956C41.997 35.6515 42.0001 35.607 42 35.5625V18.6875H42.9375C43.1861 18.6875 43.4246 18.5887 43.6004 18.4129C43.7762 18.2371 43.875 17.9986 43.875 17.75V14C43.875 13.7514 43.7762 13.5129 43.6004 13.3371C43.4246 13.1613 43.1861 13.0625 42.9375 13.0625H41.8903L41.055 6.38375C41.0267 6.15705 40.9165 5.9485 40.7453 5.79728C40.574 5.64605 40.3535 5.56256 40.125 5.5625V1.8125H38.25V5.5625C38.0215 5.56256 37.801 5.64605 37.6297 5.79728C37.4585 5.9485 37.3483 6.15705 37.32 6.38375L36.4847 13.0625H35.4375C35.1889 13.0625 34.9504 13.1613 34.7746 13.3371C34.5988 13.5129 34.5 13.7514 34.5 14V17.75C34.5 17.9986 34.5988 18.2371 34.7746 18.4129C34.9504 18.5887 35.1889 18.6875 35.4375 18.6875H36.375V35.5625C36.3749 35.607 36.378 35.6515 36.3844 35.6956L37.3219 42.2581C37.3539 42.4814 37.4654 42.6857 37.6359 42.8335C37.8064 42.9812 38.0244 43.0625 38.25 43.0625V52.4375C38.25 53.1834 37.9537 53.8988 37.4262 54.4262C36.8988 54.9537 36.1834 55.25 35.4375 55.25H28.875C28.3777 55.25 27.9008 55.0525 27.5492 54.7008C27.1975 54.3492 27 53.8723 27 53.375H29.8125C30.5584 53.375 31.2738 53.0787 31.8012 52.5512C32.3287 52.0238 32.625 51.3084 32.625 50.5625V3.6875C32.625 2.94158 32.3287 2.22621 31.8012 1.69876C31.2738 1.17132 30.5584 0.875 29.8125 0.875H3.5625C2.81658 0.875 2.10121 1.17132 1.57376 1.69876C1.04632 2.22621 0.75 2.94158 0.75 3.6875V50.5625C0.75 51.3084 1.04632 52.0238 1.57376 52.5512C2.10121 53.0787 2.81658 53.375 3.5625 53.375H21.375V54.3125C21.375 55.0584 21.6713 55.7738 22.1988 56.3012C22.7262 56.8287 23.4416 57.125 24.1875 57.125H46.6875C47.4334 57.125 48.1488 56.8287 48.6762 56.3012C49.2037 55.7738 49.5 55.0584 49.5 54.3125V49.625C49.7256 49.625 49.9436 49.5437 50.1141 49.396C50.2846 49.2482 50.3961 49.0439 50.4281 48.8206L51.3656 42.2581C51.372 42.214 51.3751 42.1695 51.375 42.125V25.25H52.3125C52.5611 25.25 52.7996 25.1512 52.9754 24.9754C53.1512 24.7996 53.25 24.5611 53.25 24.3125V20.5625C53.25 20.3139 53.1512 20.0754 52.9754 19.8996C52.7996 19.7238 52.5611 19.625 52.3125 19.625V19.625ZM27 51.5H25.125V45.875H27V51.5ZM17.625 2.75H27V4.625H17.625V2.75ZM20.4375 44C20.1889 44 19.9504 44.0988 19.7746 44.2746C19.5988 44.4504 19.5 44.6889 19.5 44.9375V51.5H3.5625C3.31386 51.5 3.0754 51.4012 2.89959 51.2254C2.72377 51.0496 2.625 50.8111 2.625 50.5625V3.6875C2.625 3.43886 2.72377 3.2004 2.89959 3.02459C3.0754 2.84877 3.31386 2.75 3.5625 2.75H15.75V5.5625C15.75 5.81114 15.8488 6.0496 16.0246 6.22541C16.2004 6.40123 16.4389 6.5 16.6875 6.5H27.9375C28.1861 6.5 28.4246 6.40123 28.6004 6.22541C28.7762 6.0496 28.875 5.81114 28.875 5.5625V2.75H29.8125C30.0611 2.75 30.2996 2.84877 30.4754 3.02459C30.6512 3.2004 30.75 3.43886 30.75 3.6875V50.5625C30.75 50.8111 30.6512 51.0496 30.4754 51.2254C30.2996 51.4012 30.0611 51.5 29.8125 51.5H28.875V44.9375C28.875 44.6889 28.7762 44.4504 28.6004 44.2746C28.4246 44.0988 28.1861 44 27.9375 44H20.4375ZM21.375 51.5V45.875H23.25V51.5H21.375ZM24.1875 55.25C23.9389 55.25 23.7004 55.1512 23.5246 54.9754C23.3488 54.7996 23.25 54.5611 23.25 54.3125V53.375H25.125C25.1289 54.0352 25.3088 54.6825 25.6462 55.25H24.1875ZM39.0778 7.4375H39.2972L40.0003 13.0625H38.3747L39.0778 7.4375ZM36.375 16.8125V14.9375H42V16.8125H36.375ZM38.25 35.4959V18.6875H40.125V35.4959L39.3122 41.1875H39.0628L38.25 35.4959ZM48.4528 14H48.6722L49.3753 19.625H47.7497L48.4528 14ZM49.5 42.0584L48.6872 47.75H48.4378L47.625 42.0584V25.25H49.5V42.0584ZM51.375 23.375H45.75V21.5H51.375V23.375Z" fill="#F2A33B"/>
</svg>
