<svg width="60" height="60" viewBox="0 0 60 60" fill="none" xmlns="http://www.w3.org/2000/svg">
<path d="M47.8125 58.125C48.5584 58.125 49.2738 57.8287 49.8012 57.3012C50.3287 56.7738 50.625 56.0584 50.625 55.3125V4.6875C50.625 3.94158 50.3287 3.22621 49.8012 2.69876C49.2738 2.17132 48.5584 1.875 47.8125 1.875H12.1875C11.4416 1.875 10.7262 2.17132 10.1988 2.69876C9.67132 3.22621 9.375 3.94158 9.375 4.6875V55.3125C9.375 56.0584 9.67132 56.7738 10.1988 57.3012C10.7262 57.8287 11.4416 58.125 12.1875 58.125H47.8125ZM24.375 3.75H35.625V5.625H24.375V3.75ZM11.25 55.3125V4.6875C11.25 4.43886 11.3488 4.2004 11.5246 4.02459C11.7004 3.84877 11.9389 3.75 12.1875 3.75H22.5V6.5625C22.5 6.81114 22.5988 7.0496 22.7746 7.22541C22.9504 7.40123 23.1889 7.5 23.4375 7.5H36.5625C36.8111 7.5 37.0496 7.40123 37.2254 7.22541C37.4012 7.0496 37.5 6.81114 37.5 6.5625V3.75H47.8125C48.0611 3.75 48.2996 3.84877 48.4754 4.02459C48.6512 4.2004 48.75 4.43886 48.75 4.6875V55.3125C48.75 55.5611 48.6512 55.7996 48.4754 55.9754C48.2996 56.1512 48.0611 56.25 47.8125 56.25H12.1875C11.9389 56.25 11.7004 56.1512 11.5246 55.9754C11.3488 55.7996 11.25 55.5611 11.25 55.3125Z" fill="#F2A33B"/>
<path d="M14.0625 37.5H45.9375C46.1861 37.5 46.4246 37.4012 46.6004 37.2254C46.7762 37.0496 46.875 36.8111 46.875 36.5625V12.1875C46.875 11.9389 46.7762 11.7004 46.6004 11.5246C46.4246 11.3488 46.1861 11.25 45.9375 11.25H14.0625C13.8139 11.25 13.5754 11.3488 13.3996 11.5246C13.2238 11.7004 13.125 11.9389 13.125 12.1875V36.5625C13.125 36.8111 13.2238 37.0496 13.3996 37.2254C13.5754 37.4012 13.8139 37.5 14.0625 37.5ZM15 13.125H45V30H30.4688L25.125 22.875L23.625 24L28.125 30H15V13.125ZM15 31.875H45V35.625H15V31.875Z" fill="#F2A33B"/>
<path d="M22.7747 23.1628L24.1003 21.8372L22.2525 19.9884C22.8728 19.3984 23.5581 18.8807 24.2953 18.4453L25.47 20.2078L27.03 19.1672L25.9988 17.6231C26.9817 17.246 28.0133 17.0102 29.0625 16.9228V18.75H30.9375V16.9228C31.9861 17.0104 33.017 17.2461 33.9994 17.6231L32.9681 19.1672L34.5281 20.2078L35.7028 18.4453C36.44 18.8807 37.1253 19.3984 37.7456 19.9884L35.8978 21.8372L37.2234 23.1628L38.9916 21.3947C39.5625 22.1519 40.035 22.9785 40.3978 23.8547L38.2059 24.4031L38.6597 26.2219L40.9613 25.6472C41.1496 26.4598 41.2464 27.2909 41.25 28.125H43.125C43.125 24.644 41.7422 21.3056 39.2808 18.8442C36.8194 16.3828 33.481 15 30 15C26.519 15 23.1806 16.3828 20.7192 18.8442C18.2578 21.3056 16.875 24.644 16.875 28.125H18.75C18.7511 27.2912 18.8454 26.4601 19.0312 25.6472L21.3328 26.2219L21.7866 24.4031L19.5937 23.8547C19.9565 22.9785 20.4291 22.1519 21 21.3947L22.7747 23.1628Z" fill="#F2A33B"/>
<path d="M18.75 8.4375C18.75 7.88124 18.585 7.33747 18.276 6.87496C17.9669 6.41245 17.5277 6.05196 17.0138 5.83909C16.4999 5.62622 15.9344 5.57052 15.3888 5.67904C14.8432 5.78756 14.3421 6.05543 13.9487 6.44876C13.5554 6.8421 13.2875 7.34324 13.179 7.88881C13.0705 8.43438 13.1262 8.99988 13.3391 9.5138C13.5519 10.0277 13.9124 10.467 14.3749 10.776C14.8374 11.0851 15.3812 11.25 15.9375 11.25C16.6834 11.25 17.3988 10.9537 17.9262 10.4262C18.4537 9.89879 18.75 9.18342 18.75 8.4375ZM15.9375 9.375C15.7521 9.375 15.5708 9.32002 15.4166 9.217C15.2625 9.11399 15.1423 8.96757 15.0713 8.79627C15.0004 8.62496 14.9818 8.43646 15.018 8.2546C15.0542 8.07275 15.1435 7.9057 15.2746 7.77459C15.4057 7.64348 15.5727 7.55419 15.7546 7.51801C15.9364 7.48184 16.1249 7.50041 16.2962 7.57136C16.4675 7.64232 16.614 7.76248 16.717 7.91665C16.82 8.07082 16.875 8.25208 16.875 8.4375C16.875 8.68614 16.7762 8.9246 16.6004 9.10041C16.4246 9.27623 16.1861 9.375 15.9375 9.375Z" fill="#F2A33B"/>
<path d="M46.875 8.4375C46.875 7.88124 46.7101 7.33747 46.401 6.87496C46.092 6.41245 45.6527 6.05196 45.1388 5.83909C44.6249 5.62622 44.0594 5.57052 43.5138 5.67904C42.9682 5.78756 42.4671 6.05543 42.0738 6.44876C41.6804 6.8421 41.4126 7.34324 41.304 7.88881C41.1955 8.43438 41.2512 8.99988 41.4641 9.5138C41.677 10.0277 42.0374 10.467 42.5 10.776C42.9625 11.0851 43.5062 11.25 44.0625 11.25C44.8084 11.25 45.5238 10.9537 46.0512 10.4262C46.5787 9.89879 46.875 9.18342 46.875 8.4375V8.4375ZM44.0625 9.375C43.8771 9.375 43.6958 9.32002 43.5417 9.217C43.3875 9.11399 43.2673 8.96757 43.1964 8.79627C43.1254 8.62496 43.1068 8.43646 43.143 8.2546C43.1792 8.07275 43.2685 7.9057 43.3996 7.77459C43.5307 7.64348 43.6978 7.55419 43.8796 7.51801C44.0615 7.48184 44.25 7.50041 44.4213 7.57136C44.5926 7.64232 44.739 7.76248 44.842 7.91665C44.945 8.07082 45 8.25208 45 8.4375C45 8.68614 44.9012 8.9246 44.7254 9.10041C44.5496 9.27623 44.3111 9.375 44.0625 9.375Z" fill="#F2A33B"/>
<path d="M15.9375 54.375C16.4938 54.375 17.0375 54.2101 17.5 53.901C17.9625 53.592 18.323 53.1527 18.5359 52.6388C18.7488 52.1249 18.8045 51.5594 18.696 51.0138C18.5874 50.4682 18.3196 49.9671 17.9262 49.5738C17.5329 49.1804 17.0318 48.9126 16.4862 48.804C15.9406 48.6955 15.3751 48.7512 14.8612 48.9641C14.3473 49.177 13.908 49.5374 13.599 50C13.29 50.4625 13.125 51.0062 13.125 51.5625C13.125 52.3084 13.4213 53.0238 13.9488 53.5512C14.4762 54.0787 15.1916 54.375 15.9375 54.375ZM15.9375 50.625C16.1229 50.625 16.3042 50.68 16.4583 50.783C16.6125 50.886 16.7327 51.0324 16.8036 51.2037C16.8746 51.375 16.8932 51.5635 16.857 51.7454C16.8208 51.9273 16.7315 52.0943 16.6004 52.2254C16.4693 52.3565 16.3023 52.4458 16.1204 52.482C15.9385 52.5182 15.75 52.4996 15.5787 52.4286C15.4074 52.3577 15.261 52.2375 15.158 52.0834C15.055 51.9292 15 51.7479 15 51.5625C15 51.3139 15.0988 51.0754 15.2746 50.8996C15.4504 50.7238 15.6889 50.625 15.9375 50.625Z" fill="#F2A33B"/>
<path d="M44.0625 48.75C43.5062 48.75 42.9625 48.915 42.5 49.224C42.0374 49.533 41.677 49.9723 41.4641 50.4862C41.2512 51.0001 41.1955 51.5656 41.304 52.1112C41.4126 52.6568 41.6804 53.1579 42.0738 53.5512C42.4671 53.9446 42.9682 54.2124 43.5138 54.321C44.0594 54.4295 44.6249 54.3738 45.1388 54.1609C45.6527 53.948 46.092 53.5876 46.401 53.125C46.7101 52.6625 46.875 52.1188 46.875 51.5625C46.875 50.8166 46.5787 50.1012 46.0512 49.5738C45.5238 49.0463 44.8084 48.75 44.0625 48.75V48.75ZM44.0625 52.5C43.8771 52.5 43.6958 52.445 43.5417 52.342C43.3875 52.239 43.2673 52.0926 43.1964 51.9213C43.1254 51.75 43.1068 51.5615 43.143 51.3796C43.1792 51.1977 43.2685 51.0307 43.3996 50.8996C43.5307 50.7685 43.6978 50.6792 43.8796 50.643C44.0615 50.6068 44.25 50.6254 44.4213 50.6964C44.5926 50.7673 44.739 50.8875 44.842 51.0417C44.945 51.1958 45 51.3771 45 51.5625C45 51.8111 44.9012 52.0496 44.7254 52.2254C44.5496 52.4012 44.3111 52.5 44.0625 52.5Z" fill="#F2A33B"/>
<path d="M18.75 39.375C18.0083 39.375 17.2833 39.5949 16.6666 40.007C16.0499 40.419 15.5693 41.0047 15.2854 41.6899C15.0016 42.3752 14.9273 43.1292 15.072 43.8566C15.2167 44.584 15.5739 45.2522 16.0983 45.7767C16.6228 46.3011 17.291 46.6583 18.0184 46.803C18.7458 46.9477 19.4998 46.8734 20.185 46.5896C20.8703 46.3057 21.4559 45.8251 21.868 45.2084C22.28 44.5917 22.5 43.8667 22.5 43.125C22.5 42.1304 22.1049 41.1766 21.4016 40.4734C20.6984 39.7701 19.7445 39.375 18.75 39.375ZM18.75 45C18.3791 45 18.0166 44.8901 17.7083 44.684C17.3999 44.478 17.1596 44.1852 17.0177 43.8425C16.8758 43.4999 16.8387 43.1229 16.911 42.7592C16.9834 42.3955 17.1619 42.0614 17.4242 41.7992C17.6864 41.537 18.0205 41.3584 18.3842 41.286C18.7479 41.2137 19.1249 41.2508 19.4675 41.3927C19.8101 41.5346 20.103 41.775 20.309 42.0833C20.515 42.3917 20.625 42.7542 20.625 43.125C20.625 43.6223 20.4274 44.0992 20.0758 44.4508C19.7242 44.8025 19.2473 45 18.75 45Z" fill="#F2A33B"/>
<path d="M26.25 39.375C25.5083 39.375 24.7833 39.5949 24.1666 40.007C23.5499 40.419 23.0693 41.0047 22.7854 41.6899C22.5016 42.3752 22.4273 43.1292 22.572 43.8566C22.7167 44.584 23.0739 45.2522 23.5983 45.7767C24.1228 46.3011 24.791 46.6583 25.5184 46.803C26.2458 46.9477 26.9998 46.8734 27.6851 46.5896C28.3703 46.3057 28.956 45.8251 29.368 45.2084C29.7801 44.5917 30 43.8667 30 43.125C30 42.1304 29.6049 41.1766 28.9016 40.4734C28.1984 39.7701 27.2446 39.375 26.25 39.375ZM26.25 45C25.8791 45 25.5166 44.8901 25.2083 44.684C24.8999 44.478 24.6596 44.1852 24.5177 43.8425C24.3758 43.4999 24.3387 43.1229 24.411 42.7592C24.4834 42.3955 24.6619 42.0614 24.9242 41.7992C25.1864 41.537 25.5205 41.3584 25.8842 41.286C26.2479 41.2137 26.6249 41.2508 26.9675 41.3927C27.3101 41.5346 27.603 41.775 27.809 42.0833C28.015 42.3917 28.125 42.7542 28.125 43.125C28.125 43.6223 27.9275 44.0992 27.5758 44.4508C27.2242 44.8025 26.7473 45 26.25 45Z" fill="#F2A33B"/>
<path d="M33.75 39.375C33.0083 39.375 32.2833 39.5949 31.6666 40.007C31.0499 40.419 30.5693 41.0047 30.2854 41.6899C30.0016 42.3752 29.9273 43.1292 30.072 43.8566C30.2167 44.584 30.5739 45.2522 31.0983 45.7767C31.6228 46.3011 32.291 46.6583 33.0184 46.803C33.7458 46.9477 34.4998 46.8734 35.1851 46.5896C35.8703 46.3057 36.456 45.8251 36.868 45.2084C37.2801 44.5917 37.5 43.8667 37.5 43.125C37.5 42.1304 37.1049 41.1766 36.4016 40.4734C35.6984 39.7701 34.7446 39.375 33.75 39.375ZM33.75 45C33.3791 45 33.0166 44.8901 32.7083 44.684C32.3999 44.478 32.1596 44.1852 32.0177 43.8425C31.8758 43.4999 31.8387 43.1229 31.911 42.7592C31.9834 42.3955 32.1619 42.0614 32.4242 41.7992C32.6864 41.537 33.0205 41.3584 33.3842 41.286C33.7479 41.2137 34.1249 41.2508 34.4675 41.3927C34.8101 41.5346 35.103 41.775 35.309 42.0833C35.515 42.3917 35.625 42.7542 35.625 43.125C35.625 43.6223 35.4275 44.0992 35.0758 44.4508C34.7242 44.8025 34.2473 45 33.75 45Z" fill="#F2A33B"/>
<path d="M41.25 46.875C41.9917 46.875 42.7167 46.655 43.3334 46.243C43.9501 45.8309 44.4307 45.2453 44.7146 44.5601C44.9984 43.8748 45.0727 43.1208 44.928 42.3934C44.7833 41.666 44.4261 40.9978 43.9017 40.4733C43.3772 39.9489 42.709 39.5918 41.9816 39.4471C41.2542 39.3024 40.5002 39.3766 39.8149 39.6605C39.1297 39.9443 38.544 40.4249 38.132 41.0416C37.7199 41.6583 37.5 42.3833 37.5 43.125C37.5 44.1196 37.8951 45.0734 38.5984 45.7766C39.3016 46.4799 40.2554 46.875 41.25 46.875ZM41.25 41.25C41.6209 41.25 41.9834 41.36 42.2917 41.566C42.6001 41.772 42.8404 42.0649 42.9823 42.4075C43.1242 42.7501 43.1613 43.1271 43.089 43.4908C43.0166 43.8545 42.8381 44.1886 42.5758 44.4508C42.3136 44.713 41.9795 44.8916 41.6158 44.964C41.2521 45.0363 40.8751 44.9992 40.5325 44.8573C40.1899 44.7153 39.897 44.475 39.691 44.1667C39.485 43.8583 39.375 43.4958 39.375 43.125C39.375 42.6277 39.5725 42.1508 39.9242 41.7992C40.2758 41.4475 40.7527 41.25 41.25 41.25Z" fill="#F2A33B"/>
<path d="M20.625 50.625H22.5V52.5H20.625V50.625Z" fill="#F2A33B"/>
<path d="M24.375 50.625H26.25V52.5H24.375V50.625Z" fill="#F2A33B"/>
<path d="M28.125 50.625H31.875V52.5H28.125V50.625Z" fill="#F2A33B"/>
<path d="M33.75 50.625H35.625V52.5H33.75V50.625Z" fill="#F2A33B"/>
<path d="M37.5 50.625H39.375V52.5H37.5V50.625Z" fill="#F2A33B"/>
</svg>
