<svg width="60" height="60" viewBox="0 0 60 60" fill="none" xmlns="http://www.w3.org/2000/svg">
<path d="M53.4375 9.375H18.75V2.8125C18.75 2.56386 18.6512 2.3254 18.4754 2.14959C18.2996 1.97377 18.0611 1.875 17.8125 1.875H6.5625C5.31975 1.87649 4.12834 2.37083 3.24958 3.24958C2.37083 4.12834 1.87649 5.31975 1.875 6.5625V49.6875C1.87649 50.9302 2.37083 52.1217 3.24958 53.0004C4.12834 53.8792 5.31975 54.3735 6.5625 54.375H48.8438C49.0751 55.5142 49.7214 56.5268 50.6574 57.2163C51.5933 57.9057 52.752 58.2228 53.9086 58.106C55.0652 57.9891 56.1371 57.4467 56.9162 56.5841C57.6954 55.7214 58.1262 54.5999 58.125 53.4375V14.0625C58.1235 12.8198 57.6292 11.6283 56.7504 10.7496C55.8717 9.87083 54.6802 9.37649 53.4375 9.375V9.375ZM6.5625 3.75H16.875V9.375H6.5625C5.81658 9.375 5.10121 9.07868 4.57376 8.55124C4.04632 8.02379 3.75 7.30842 3.75 6.5625C3.75 5.81658 4.04632 5.10121 4.57376 4.57376C5.10121 4.04632 5.81658 3.75 6.5625 3.75V3.75ZM56.25 53.4375C56.25 54.1834 55.9537 54.8988 55.4262 55.4262C54.8988 55.9537 54.1834 56.25 53.4375 56.25C52.6916 56.25 51.9762 55.9537 51.4488 55.4262C50.9213 54.8988 50.625 54.1834 50.625 53.4375V17.8125C51.4354 18.4259 52.4249 18.7559 53.4413 18.7519C54.4577 18.7478 55.4445 18.4098 56.25 17.79V53.4375ZM53.4375 16.875C52.6916 16.875 51.9762 16.5787 51.4488 16.0512C50.9213 15.5238 50.625 14.8084 50.625 14.0625C50.625 13.8139 50.5262 13.5754 50.3504 13.3996C50.1746 13.2238 49.9361 13.125 49.6875 13.125C49.4389 13.125 49.2004 13.2238 49.0246 13.3996C48.8488 13.5754 48.75 13.8139 48.75 14.0625V48.75H34.6875V50.625H48.75V52.5H6.5625C5.81658 52.5 5.10121 52.2037 4.57376 51.6762C4.04632 51.1488 3.75 50.4334 3.75 49.6875V10.3125C4.56052 10.9227 5.54797 11.2518 6.5625 11.25H53.4375C54.1834 11.25 54.8988 11.5463 55.4262 12.0738C55.9537 12.6012 56.25 13.3166 56.25 14.0625C56.25 14.8084 55.9537 15.5238 55.4262 16.0512C54.8988 16.5787 54.1834 16.875 53.4375 16.875Z" fill="#F2A33B"/>
<path d="M44.0625 13.125H22.5C22.2514 13.125 22.0129 13.2238 21.8371 13.3996C21.6613 13.5754 21.5625 13.8139 21.5625 14.0625C21.561 15.3052 21.0667 16.4967 20.1879 17.3754C19.3092 18.2542 18.1177 18.7485 16.875 18.75V14.0625C16.875 13.8139 16.7762 13.5754 16.6004 13.3996C16.4246 13.2238 16.1861 13.125 15.9375 13.125H10.3125C10.0639 13.125 9.8254 13.2238 9.64959 13.3996C9.47377 13.5754 9.375 13.8139 9.375 14.0625V45.9375C9.375 46.1861 9.47377 46.4246 9.64959 46.6004C9.8254 46.7762 10.0639 46.875 10.3125 46.875H44.0625C44.3111 46.875 44.5496 46.7762 44.7254 46.6004C44.9012 46.4246 45 46.1861 45 45.9375V14.0625C45 13.8139 44.9012 13.5754 44.7254 13.3996C44.5496 13.2238 44.3111 13.125 44.0625 13.125ZM11.25 15H15V19.6875C15 19.9361 15.0988 20.1746 15.2746 20.3504C15.4504 20.5262 15.6889 20.625 15.9375 20.625H16.875C18.4526 20.623 19.9768 20.0537 21.1695 19.021C22.3621 17.9883 23.1434 16.5611 23.3709 15H26.25V28.125H23.4375V25.3125C23.4375 25.0639 23.3387 24.8254 23.1629 24.6496C22.9871 24.4738 22.7486 24.375 22.5 24.375H15C14.7514 24.375 14.5129 24.4738 14.3371 24.6496C14.1613 24.8254 14.0625 25.0639 14.0625 25.3125V28.125H11.25V15ZM21.5625 26.25V28.125H15.9375V26.25H21.5625ZM11.25 33.75H15V41.25H11.25V33.75ZM43.125 45H11.25V43.125H27.1875C27.4361 43.125 27.6746 43.0262 27.8504 42.8504C28.0262 42.6746 28.125 42.4361 28.125 42.1875V32.8125C28.125 32.5639 28.0262 32.3254 27.8504 32.1496C27.6746 31.9738 27.4361 31.875 27.1875 31.875H11.25V30H33.75C33.9986 30 34.2371 29.9012 34.4129 29.7254C34.5887 29.5496 34.6875 29.3111 34.6875 29.0625C34.689 27.8198 35.1833 26.6283 36.0621 25.7496C36.9408 24.8708 38.1323 24.3765 39.375 24.375V29.0625C39.375 29.3111 39.4738 29.5496 39.6496 29.7254C39.8254 29.9012 40.0639 30 40.3125 30H43.125V45ZM16.875 41.25V33.75H26.25V41.25H16.875ZM43.125 28.125H41.25V23.4375C41.25 23.1889 41.1512 22.9504 40.9754 22.7746C40.7996 22.5988 40.5611 22.5 40.3125 22.5H39.375C37.7974 22.502 36.2731 23.0713 35.0805 24.104C33.8879 25.1367 33.1066 26.5639 32.8791 28.125H28.125V20.625H43.125V28.125ZM43.125 18.75H28.125V15H43.125V18.75Z" fill="#F2A33B"/>
<path d="M38.4375 37.5C37.8812 37.5 37.3375 37.665 36.875 37.974C36.4124 38.283 36.052 38.7223 35.8391 39.2362C35.6262 39.7501 35.5705 40.3156 35.679 40.8612C35.7876 41.4068 36.0554 41.9079 36.4488 42.3012C36.8421 42.6946 37.3432 42.9624 37.8888 43.071C38.4344 43.1795 38.9999 43.1238 39.5138 42.9109C40.0277 42.698 40.467 42.3376 40.776 41.875C41.085 41.4125 41.25 40.8688 41.25 40.3125C41.25 39.5666 40.9537 38.8512 40.4262 38.3238C39.8988 37.7963 39.1834 37.5 38.4375 37.5ZM38.4375 41.25C38.2521 41.25 38.0708 41.195 37.9167 41.092C37.7625 40.989 37.6423 40.8426 37.5714 40.6713C37.5004 40.5 37.4818 40.3115 37.518 40.1296C37.5542 39.9477 37.6435 39.7807 37.7746 39.6496C37.9057 39.5185 38.0727 39.4292 38.2546 39.393C38.4365 39.3568 38.625 39.3754 38.7963 39.4464C38.9676 39.5173 39.114 39.6375 39.217 39.7917C39.32 39.9458 39.375 40.1271 39.375 40.3125C39.375 40.5611 39.2762 40.7996 39.1004 40.9754C38.9246 41.1512 38.6861 41.25 38.4375 41.25Z" fill="#F2A33B"/>
<path d="M31.875 37.5H33.75V43.125H31.875V37.5Z" fill="#F2A33B"/>
<path d="M35.625 33.75H41.25V35.625H35.625V33.75Z" fill="#F2A33B"/>
<path d="M7.5 39.375H5.625V49.6875C5.625 49.9361 5.72377 50.1746 5.89959 50.3504C6.0754 50.5262 6.31386 50.625 6.5625 50.625H13.125V48.75H7.5V39.375Z" fill="#F2A33B"/>
<path d="M15 48.75H16.875V50.625H15V48.75Z" fill="#F2A33B"/>
</svg>
